<?xml version="1.0" encoding="utf-8"?>
<!-- Generator: Adobe Illustrator 17.0.0, SVG Export Plug-In . SVG Version: 6.00 Build 0)  -->
<!DOCTYPE svg PUBLIC "-//W3C//DTD SVG 1.1//EN" "http://www.w3.org/Graphics/SVG/1.1/DTD/svg11.dtd">
<svg version="1.1" id="Layer_1" xmlns="http://www.w3.org/2000/svg" xmlns:xlink="http://www.w3.org/1999/xlink" x="0px" y="0px"
	 width="413px" height="413px" viewBox="0 0 413 413" enable-background="new 0 0 413 413" xml:space="preserve">
<g>
	<path fill="#f5d9ea" d="M292.761,162.155c-0.317-6.194-1.127-12.296-3.133-18.21c-2.743-8.085-7.663-14.491-14.794-19.119
		c-6.71-4.354-14.298-6.125-22.149-6.784c-5.125-0.43-10.275-0.64-15.418-0.774c-6.768-0.176-13.541-0.272-20.31-0.24
		c-16.824,0.078-33.647,0.208-50.47,0.401c-7.058,0.081-14.114,0.379-21.032,1.996c-5.171,1.209-10.079,3.067-14.448,6.148
		c-9.782,6.899-14.515,16.754-15.956,28.28c-0.801,6.411-1.041,12.905-1.273,19.371c-0.249,6.931-0.284,13.873-0.252,20.809
		c0.077,16.699,0.196,33.399,0.405,50.097c0.096,7.638,0.408,15.276,2.457,22.713c1.253,4.545,3,8.869,5.75,12.738
		c6.908,9.717,16.735,14.405,28.204,15.85c6.409,0.808,12.904,1.056,19.37,1.273c7.554,0.253,15.119,0.247,22.679,0.266
		c14.375,0.036,28.75,0.011,43.125,0.011c0-0.133-0.001-0.267-0.001-0.4c1.576,0,3.153,0.036,4.728-0.006
		c7.719-0.209,15.435-0.422,22.967-2.446c6.568-1.765,12.427-4.737,17.347-9.527c6.873-6.691,10.185-15.09,11.353-24.332
		c0.825-6.532,1.046-13.153,1.297-19.743c0.247-6.473,0.269-12.958,0.254-19.437C293.417,201.443,293.767,181.791,292.761,162.155z
		 M203.431,263.366c-31.018,0.21-56.426-25.437-56.366-56.495c0.06-30.934,25.481-56.391,56.608-56.302
		c30.849,0.088,56.422,25.456,56.222,56.669C259.696,238.354,234.677,263.373,203.431,263.366z M262.203,161.667
		c-7.329,0.035-13.381-5.966-13.385-13.272c-0.004-7.244,5.909-13.043,13.154-13.197c7.291-0.155,13.543,6.076,13.283,13.202
		C275.264,155.688,269.416,161.632,262.203,161.667z"/>
	<path fill="#f5d9ea" d="M203.571,170.419c-20.159,0.011-36.665,16.486-36.657,36.587c0.008,20.048,16.506,36.55,36.556,36.566
		c20.043,0.016,36.561-16.471,36.595-36.529C240.1,187.008,223.56,170.408,203.571,170.419z"/>
	<path fill="#f5d9ea" d="M206.5,0C92.453,0,0,92.453,0,206.5S92.453,413,206.5,413S413,320.547,413,206.5S320.547,0,206.5,0z
		 M313.263,206.986c-0.053,0-0.106,0-0.158,0c0,11.758,0.161,23.519-0.061,35.273c-0.131,6.921-0.511,13.878-1.417,20.734
		c-1.552,11.748-5.578,22.589-13.384,31.774c-7.144,8.406-15.957,14.258-26.482,17.609c-8.59,2.735-17.42,3.787-26.368,3.885
		c-21.476,0.234-42.953,0.42-64.429,0.47c-8.136,0.019-16.279-0.267-24.408-0.645c-6.806-0.317-13.556-1.268-20.087-3.305
		c-17.529-5.468-30.028-16.499-36.941-33.641c-3.041-7.54-4.567-15.425-4.961-23.502c-0.424-8.707-0.74-17.426-0.815-26.142
		c-0.129-14.999-0.106-30.001-0.007-45c0.053-8.055,0.258-16.114,0.644-24.159c0.494-10.266,2.375-20.26,6.903-29.601
		c5.175-10.676,13.032-18.869,23.366-24.617c6.5-3.616,13.514-5.961,20.889-6.925c5.586-0.73,11.226-1.35,16.85-1.431
		c21.391-0.309,42.786-0.45,64.179-0.501c7.845-0.019,15.698,0.254,23.535,0.632c10.737,0.518,21.199,2.473,30.824,7.508
		c12.472,6.524,21.376,16.34,26.546,29.5c2.972,7.566,4.591,15.428,4.922,23.507c0.441,10.744,0.631,21.499,0.841,32.252
		C313.35,196.098,313.263,201.543,313.263,206.986z"/>
</g>
</svg>
