<?xml version="1.0" encoding="utf-8"?>
<!-- Generator: Adobe Illustrator 17.0.0, SVG Export Plug-In . SVG Version: 6.00 Build 0)  -->
<!DOCTYPE svg PUBLIC "-//W3C//DTD SVG 1.1//EN" "http://www.w3.org/Graphics/SVG/1.1/DTD/svg11.dtd">
<svg version="1.1" id="Layer_1" xmlns="http://www.w3.org/2000/svg" xmlns:xlink="http://www.w3.org/1999/xlink" x="0px" y="0px"
	 width="508.871px" height="508.871px" viewBox="0 0 508.871 508.871" enable-background="new 0 0 508.871 508.871"
	 xml:space="preserve">
<g>
	<path fill="#f5d9ea" d="M342.341,158.798c-31.948-30.753-70.393-42.132-114.132-32.907c-29.266,6.173-53.011,21.667-71.491,45.106
		c-12.096,15.342-20.074,32.662-23.653,51.924c-2.997,16.13-2.766,32.219,0.626,48.286c3.37,15.965,10.096,30.425,19.096,43.943
		c0.848,1.273,1.348,3.405,0.917,4.8c-2.445,7.903-5.225,15.703-7.889,23.539c-2.009,5.909-4.014,11.82-6.389,18.816
		c2.365-0.445,3.566-0.55,4.691-0.901c12.82-4.007,25.662-7.952,38.417-12.158c3.063-1.01,5.389-0.614,8.082,1.017
		c21.299,12.902,44.44,18.944,69.326,17.865c34.892-1.512,64.275-15.374,87.611-41.123c20.301-22.4,30.878-49.002,31.279-79.514
		C379.29,212.67,367.177,182.705,342.341,158.798z M314.05,315.084c-11.015,4.985-21.993,5.692-33.617,1.525
		c-19.631-7.036-38.618-14.994-54.194-29.437c-12.906-11.967-23.635-25.65-32.942-40.543c-5.98-9.569-10.968-19.468-12.415-30.83
		c-0.095-0.746-0.338-1.479-0.375-2.226c-0.063-1.254-0.017-2.513-0.017-3.77c0.094-13.199,5.026-24.281,15.225-32.65
		c2.448-2.009,6.008-3.128,9.214-3.615c3.271-0.496,6.849-0.145,10.075,0.683c1.886,0.484,4.142,2.301,4.869,4.077
		c4.426,10.802,8.852,21.641,12.329,32.765c0.8,2.56-1.637,6.58-3.434,9.384c-2.004,3.126-4.909,5.699-7.551,8.386
		c-2.227,2.265-2.76,4.506-1.117,7.413c10.322,18.257,24.083,33.019,42.944,42.663c2.462,1.259,4.973,2.423,7.412,3.722
		c3.298,1.756,6.006,1.042,8.391-1.698c3.711-4.265,7.631-8.36,11.155-12.773c2.623-3.285,5.614-4.234,9.246-2.392
		c10.078,5.112,20.094,10.349,30.104,15.594c2.325,1.218,3.247,3.231,3.164,5.93C332.116,300.41,326.023,309.665,314.05,315.084z"/>
	<path fill="#f5d9ea" d="M254.435,0C113.915,0,0,113.915,0,254.435S113.915,508.87,254.435,508.87S508.87,394.955,508.87,254.435
		S394.956,0,254.435,0z M379.497,326.847c-20.237,30.356-48.138,50.582-83.143,60.602c-32.714,9.364-65.093,7.674-96.793-4.886
		c-4.537-1.798-9.065-3.733-13.309-6.118c-3.679-2.068-6.79-0.489-10.051,0.537c-24.534,7.724-49.052,15.501-73.581,23.24
		c-0.43,0.136-0.941,0.017-2.018,0.017c1.475-4.557,2.795-8.818,4.232-13.04c7.041-20.671,14.179-41.31,21.061-62.034
		c0.611-1.84,0.257-4.564-0.711-6.278c-11.842-20.968-18.446-43.482-19.305-67.476c-1.178-32.931,7.521-63.195,26.645-90.149
		c21.422-30.193,50.168-50.197,86.209-58.678c49.737-11.703,94.793-1.273,134.04,31.6c25.72,21.542,41.97,49.264,48.433,82.174
		C408.988,255.98,402.007,293.081,379.497,326.847z"/>
</g>
</svg>
