<?xml version="1.0" encoding="utf-8"?>
<!-- Generator: Adobe Illustrator 22.0.0, SVG Export Plug-In . SVG Version: 6.00 Build 0)  -->
<svg version="1.1" id="Слой_1" xmlns="http://www.w3.org/2000/svg" xmlns:xlink="http://www.w3.org/1999/xlink" x="0px" y="0px"
	 viewBox="0 0 298.7 215.7" style="enable-background:new 0 0 298.7 215.7;" xml:space="preserve">
<style type="text/css">
	.st0{fill:none;stroke:#000000;stroke-width:2;stroke-miterlimit:10;}
	.st1{fill:#F5D9EA;}
</style>
<g>
	<g>
		<path d="M18.5,145.5c0,0.4-0.1,0.5-0.4,0.4h-1.2c-2.8,0-5.4,0.9-8,2.7c-2.4,1.7-4.3,3.8-5.6,6.4c-1.4,2.6-2,5.5-2,8.6
			c0,2.6,0.5,4.8,1.4,6.6c0.4,0.7,1.1,1.8,2.3,3.2v-1.5c0-4.9,1.6-9.5,4.9-13.9s7.2-7.5,11.7-9.2c1.9-0.6,3.8-1,5.7-1
			c3.4,0,6,1,7.9,2.9c1.9,1.9,2.8,4.7,2.8,8.1c0,1.7-0.3,3.3-0.9,5c0.5-0.4,1.5-1.1,3-2.2c0.9-0.7,1.9-1.5,2.9-2.3
			c2.7-7.8,6.2-13.5,10.6-17.1c2.8-2.2,5.5-3.3,8.1-3.3c1.8,0,2.7,0.7,2.7,2.2c0,2.2-4.5,6.7-13.4,13.6c-1.3,8-3.3,14.4-5.8,19.2
			c-3.5,6.6-8.4,10.8-14.8,12.7c-2.9,0.9-5.7,1.3-8.6,1.3c-4.4,0-8.1-1.1-11.2-3.4c-3.1-2.3-5-5.5-5.7-9.6c-3.3-2.7-5-6.6-5-11.7
			c0-3.5,0.8-6.6,2.4-9.5c1.6-2.9,3.9-5.1,6.8-6.7c2.5-1.3,5-1.9,7.4-1.9C17.9,145,18.5,145.2,18.5,145.5z M35.9,164.7
			c0.7-1.8,1-3.6,1-5.6c0-1.8-0.3-3.4-1-4.9c-1.5-3.6-4.4-5.3-8.7-5.3c-5.2,0-10.1,2.5-14.7,7.6c-1.9,2-3.4,4.5-4.7,7.5
			c-1.3,3-1.9,5.8-1.9,8.4c0,1,0.1,1.8,0.3,2.4c2.3,1.5,5.3,2.2,9.1,2.2c6.8,0,12.3-2.3,16.6-6.8L32,170c-0.2,0.1-0.3,0.1-0.4,0.2
			c-0.1,0.1-0.4,0.2-0.8,0.5c-1.2,0.7-1.9,1-2.2,1l-0.3-0.2c-0.3-0.3,0.1-0.8,1.1-1.4C30.5,169.2,32.7,167.5,35.9,164.7z M36.6,166
			c-5.2,8-12.4,12-21.4,12c-3.6,0-6.5-0.7-8.8-2c0.9,3,2.4,5.4,4.7,7.3c2.3,1.9,4.9,2.8,7.8,2.8c1.4,0,2.8-0.2,4.2-0.5
			c3.7-1,7.7-4.2,12-9.8c3.7-5,6.2-9.9,7.5-14.7L36.6,166z M51.4,152.8c1-0.7,2.1-1.5,3.3-2.5c1.2-1,2.5-2.1,3.8-3.4
			c3-2.8,4.5-4.8,4.5-5.9c-0.1-0.6-0.5-1-1.3-1c-1.8,0-3.9,1.7-6.3,5.1C53.5,148,52.1,150.6,51.4,152.8z"/>
		<path d="M72.8,151.3l-5.5,8.1l5.5,0v1.3l-6.5,0L54,179.1c-1,1.4-1.4,2.5-1.4,3.1c0,0.7,0.4,1.1,1.2,1.1c1.5,0,3.9-1.6,7.2-4.9
			c2.7-2.5,5.3-5.4,7.8-8.8l1.5-0.2c-1.2,1.7-2.5,3.3-4,4.9c-1.5,1.6-3,3.2-4.6,4.7c-2,1.9-3.8,3.4-5.4,4.4c-1.7,1-3,1.5-4,1.5
			c-2,0-3-1.2-3-3.5c0-2.7,1.9-6.9,5.8-12.8l5.2-7.9l-4.9,0v-1.3l5.7,0l5.7-8.1L72.8,151.3z"/>
		<path d="M76.4,166.8C69.6,175,66.2,180,66.2,182c0,0.8,0.4,1.2,1.1,1.2c1.9,0,5.1-3.3,9.8-9.9l4.8-6.5h6.4l-8,10.6
			c-1.7,2.3-2.6,3.9-2.6,4.6c0,0.9,0.5,1.4,1.4,1.4c3,0,7.9-4.3,14.9-13l1.6-0.2c-3,3.9-6,7.3-9,10c-3.8,3.3-6.9,5-9.3,5
			c-2.1,0-3.2-1.4-3.2-4.3l0.2-1.9l-4.7,4.4c-1.7,1.2-3,1.8-4.2,1.8c-2,0-3-1.3-3-3.8c0-3.3,2.6-8.1,7.9-14.4H76.4z"/>
		<path d="M127.7,143.7l-23.3,35c-1.1,1.7-1.6,2.9-1.6,3.7c0,0.8,0.4,1.2,1.2,1.2c2.6,0,7.7-4.5,15.3-13.5l1.5-0.1l-8.5,9.2
			c-4.3,4.1-7.5,6-9.7,5.5c-1.2-0.2-2-1-2.5-2.4c-0.1-0.2-0.1-0.7-0.2-1.5c-0.1-0.8-0.1-1.2-0.1-1.3c-2.1,2.1-3.4,3.3-3.8,3.6
			c-1.4,1.1-2.6,1.6-3.8,1.6c-2.6,0-3.9-1.7-3.9-5.1c0-3,1.2-5.9,3.6-8.7c2.8-3.4,5.9-5.1,9.6-5.1c2.1,0,3.3,0.8,3.8,2.5l16.4-24.8
			L127.7,143.7z M92.9,182.4c0.1,0.5,0.4,0.8,1.1,0.8c2,0,4.8-3.2,8.4-9.5c1.3-2.3,1.9-4,1.9-4.9c0-0.5-0.2-0.8-0.5-0.9
			c-1.4-0.4-3.7,1.5-6.9,5.6C93.8,177.7,92.5,180.7,92.9,182.4z"/>
		<path d="M127,166.8c-5.3,6.7-8.5,11.2-9.5,13.4c-0.5,0.9-0.8,1.6-0.8,2.2c0,0.5,0.2,0.8,0.7,0.9c1.5,0.3,4.2-1.4,8.2-5.3
			c2.7-2.7,5.1-5.3,7.2-7.9l1.5-0.2c-7.9,10-14,15-18.2,15c-2,0-3-1.1-3-3.3c0-2.3,1-4.9,3-7.7l5-7.2H127z M127.2,157.7
			c0.4-0.1,0.7-0.2,0.8-0.2c0.7,0,1.3,0.3,1.8,0.8c0.5,0.6,0.8,1.2,0.8,2c0,0.9-0.3,1.7-1,2.3c-0.7,0.6-1.5,1-2.4,1
			c-0.3,0-0.7-0.1-1.1-0.2c-0.9-0.4-1.4-1.1-1.5-2.1C124.2,159.5,125.1,158.3,127.2,157.7z"/>
		<path d="M145.4,173.6c0.2,0.1,0.6,0.1,1,0.1c2.2,0,4.3-1.3,6.2-3.8l0.8,0.5c-2.1,2.9-4.5,4.3-7.1,4.3h-1.1
			c-1.1,2.5-2.7,4.7-4.9,6.6c-2.6,2.4-5.3,3.7-8.1,3.7c-3,0-4.4-1.7-4.4-5c0-2.2,0.7-4.4,2.1-6.7c1.4-2.1,3-3.8,5-5
			c2.1-1.5,4.3-2.2,6.4-2.2c1.4,0,2.4,0.5,2.8,1.6c0.2,0.1,0.7,0.5,1.6,1.1c0.4,0.4,0.6,1,0.6,1.8
			C146.2,171.4,146,172.4,145.4,173.6z M133,183.1c0.2,0.3,0.8,0.4,1.8,0.3c1.9-0.6,3.7-1.8,5.6-3.7c1.6-1.6,2.9-3.4,3.9-5.4
			c-1.5-0.8-2.2-1.8-2.2-3.2c0-1,0.5-1.9,1.5-2.7c-2.3,0.9-4.4,2.6-6.4,5c-1,1.2-2,2.7-3,4.6c-1,1.8-1.5,3.2-1.5,4.1
			C132.6,182.4,132.7,182.8,133,183.1z M144.6,173.3c0.4-1.2,0.7-2.3,0.7-3.1c0-0.9-0.3-1.4-1-1.5c-0.7,0.6-1,1.4-1,2.4
			C143.2,172.3,143.7,173.1,144.6,173.3z"/>
		<path d="M193.8,145.5c0,0.4-0.1,0.5-0.4,0.4h-1.2c-2.8,0-5.4,0.9-8,2.7c-2.4,1.7-4.3,3.8-5.6,6.4c-1.4,2.6-2,5.5-2,8.6
			c0,2.6,0.5,4.8,1.4,6.6c0.4,0.7,1.1,1.8,2.3,3.2v-1.5c0-4.9,1.6-9.5,4.9-13.9s7.2-7.5,11.7-9.2c1.9-0.6,3.8-1,5.7-1
			c3.4,0,6,1,7.9,2.9c1.9,1.9,2.8,4.7,2.8,8.1c0,1.7-0.3,3.3-0.9,5c0.5-0.4,1.5-1.1,3-2.2c0.9-0.7,1.9-1.5,2.9-2.3
			c2.7-7.8,6.2-13.5,10.6-17.1c2.8-2.2,5.5-3.3,8.1-3.3c1.8,0,2.7,0.7,2.7,2.2c0,2.2-4.5,6.7-13.4,13.6c-1.3,8-3.3,14.4-5.8,19.2
			c-3.5,6.6-8.4,10.8-14.8,12.7c-2.9,0.9-5.7,1.3-8.6,1.3c-4.4,0-8.1-1.1-11.2-3.4c-3.1-2.3-5-5.5-5.7-9.6c-3.3-2.7-5-6.6-5-11.7
			c0-3.5,0.8-6.6,2.4-9.5c1.6-2.9,3.9-5.1,6.8-6.7c2.5-1.3,5-1.9,7.4-1.9C193.2,145,193.8,145.2,193.8,145.5z M211.2,164.7
			c0.7-1.8,1-3.6,1-5.6c0-1.8-0.3-3.4-1-4.9c-1.5-3.6-4.4-5.3-8.7-5.3c-5.2,0-10.1,2.5-14.7,7.6c-1.9,2-3.4,4.5-4.7,7.5
			c-1.3,3-1.9,5.8-1.9,8.4c0,1,0.1,1.8,0.3,2.4c2.3,1.5,5.3,2.2,9.1,2.2c6.8,0,12.3-2.3,16.6-6.8l0.1-0.2c-0.2,0.1-0.3,0.1-0.4,0.2
			c-0.1,0.1-0.4,0.2-0.8,0.5c-1.2,0.7-1.9,1-2.2,1l-0.3-0.2c-0.3-0.3,0.1-0.8,1.1-1.4C205.8,169.2,208,167.5,211.2,164.7z
			 M211.8,166c-5.2,8-12.4,12-21.4,12c-3.6,0-6.5-0.7-8.8-2c0.9,3,2.4,5.4,4.7,7.3c2.3,1.9,4.9,2.8,7.8,2.8c1.4,0,2.8-0.2,4.2-0.5
			c3.7-1,7.7-4.2,12-9.8c3.7-5,6.2-9.9,7.5-14.7L211.8,166z M226.7,152.8c1-0.7,2.1-1.5,3.3-2.5c1.2-1,2.5-2.1,3.8-3.4
			c3-2.8,4.5-4.8,4.5-5.9c-0.1-0.6-0.5-1-1.3-1c-1.8,0-3.9,1.7-6.3,5.1C228.7,148,227.4,150.6,226.7,152.8z"/>
		<path d="M242.2,173.6c0.2,0.1,0.6,0.1,1,0.1c2.2,0,4.3-1.3,6.2-3.8l0.8,0.5c-2.1,2.9-4.5,4.3-7.1,4.3H242
			c-1.1,2.5-2.7,4.7-4.9,6.6c-2.6,2.4-5.3,3.7-8.1,3.7c-3,0-4.4-1.7-4.4-5c0-2.2,0.7-4.4,2.1-6.7c1.4-2.1,3-3.8,5-5
			c2.1-1.5,4.3-2.2,6.4-2.2c1.4,0,2.4,0.5,2.8,1.6c0.2,0.1,0.7,0.5,1.6,1.1c0.4,0.4,0.6,1,0.6,1.8
			C243,171.4,242.7,172.4,242.2,173.6z M229.7,183.1c0.2,0.3,0.8,0.4,1.8,0.3c1.9-0.6,3.7-1.8,5.6-3.7c1.6-1.6,2.9-3.4,3.9-5.4
			c-1.5-0.8-2.2-1.8-2.2-3.2c0-1,0.5-1.9,1.5-2.7c-2.3,0.9-4.4,2.6-6.4,5c-1,1.2-2,2.7-3,4.6c-1,1.8-1.5,3.2-1.5,4.1
			C229.3,182.4,229.4,182.8,229.7,183.1z M241.3,173.3c0.4-1.2,0.7-2.3,0.7-3.1c0-0.9-0.3-1.4-1-1.5c-0.7,0.6-1,1.4-1,2.4
			C239.9,172.3,240.4,173.1,241.3,173.3z"/>
		<path d="M257.9,166.8c-6.8,8.2-10.2,13.3-10.2,15.2c0,0.8,0.4,1.2,1.1,1.2c1.9,0,5.1-3.3,9.8-9.9l4.8-6.5h6.4l-8,10.6
			c-1.7,2.3-2.6,3.9-2.6,4.6c0,0.9,0.5,1.4,1.4,1.4c3,0,7.9-4.3,14.9-13l1.6-0.2c-3,3.9-6,7.3-9,10c-3.8,3.3-6.9,5-9.3,5
			c-2.1,0-3.2-1.4-3.2-4.3l0.2-1.9l-4.7,4.4c-1.7,1.2-3,1.8-4.2,1.8c-2,0-3-1.3-3-3.8c0-3.3,2.6-8.1,7.9-14.4H257.9z"/>
		<path d="M298.7,143.7l-23,34.5c-1.4,2.3-2.2,3.7-2.2,4.2c0,0.5,0.3,0.8,1,0.8c1.4,0,3.9-1.7,7.4-5c3-3,5.5-5.7,7.4-8.2l1.5-0.2
			c-4.1,5.2-7.6,9-10.7,11.4c-3.1,2.4-5.8,3.6-8.1,3.6c-0.6,0-1.2-0.3-1.6-1c-0.4-0.7-0.6-1.5-0.6-2.6c0-1.8,1.6-5.2,4.8-10.2
			l17.4-27.4L298.7,143.7z"/>
	</g>
	<circle id="XMLID_270_" class="st0" cx="149.5" cy="73.8" r="65.4"/>
	<g>
		<path d="M44.5,202.6h1.4l-2,9.1h3.4l1.9-9.1h1.4l-1.9,9.1H52l2-9.1h1.3l-2.2,10.2H42.3L44.5,202.6z"/>
		<path d="M56.9,205.4h1.2l-0.7,3.2l0.2,0c0.3,0,0.6-0.1,0.9-0.3c0.2-0.2,0.5-0.6,0.9-1.3c0.4-0.7,0.8-1.1,1.1-1.3s0.7-0.3,1.2-0.3
			h0.6l-0.2,1h-0.3c-0.3,0-0.5,0-0.6,0.1c-0.1,0.1-0.3,0.3-0.5,0.7c-0.3,0.5-0.6,0.9-0.8,1.2c-0.2,0.2-0.5,0.4-0.9,0.6
			c0.3,0.1,0.6,0.3,0.8,0.5c0.2,0.2,0.4,0.6,0.5,1l0.9,2.3h-1.3L59,211c-0.3-0.7-0.5-1.1-0.7-1.3c-0.2-0.2-0.5-0.3-1-0.3l-0.8,3.5
			h-1.3L56.9,205.4z"/>
		<path d="M62.3,210c0-1.4,0.4-2.6,1.3-3.6c0.7-0.8,1.6-1.2,2.8-1.2c0.9,0,1.6,0.3,2.2,0.8c0.5,0.6,0.8,1.3,0.8,2.3
			c0,0.9-0.2,1.6-0.5,2.4c-0.3,0.7-0.8,1.3-1.5,1.7s-1.3,0.6-2,0.6c-0.6,0-1.1-0.1-1.6-0.4c-0.5-0.2-0.8-0.6-1.1-1
			C62.4,211.1,62.3,210.6,62.3,210z M63.6,209.9c0,0.7,0.2,1.2,0.5,1.6c0.3,0.4,0.8,0.5,1.3,0.5c0.3,0,0.5-0.1,0.8-0.2
			s0.5-0.3,0.7-0.5c0.2-0.2,0.4-0.5,0.6-0.8s0.3-0.6,0.4-0.9c0.1-0.5,0.2-0.9,0.2-1.3c0-0.7-0.2-1.2-0.5-1.6
			c-0.3-0.4-0.8-0.6-1.3-0.6c-0.4,0-0.8,0.1-1.1,0.3c-0.3,0.2-0.6,0.5-0.9,0.8s-0.5,0.8-0.6,1.3C63.6,209.1,63.6,209.5,63.6,209.9z"
			/>
		<path d="M71.8,205.4h5.6l-1.6,7.4h-1.3l1.4-6.4h-3.1l-1,4.4c-0.2,0.8-0.4,1.3-0.7,1.6c-0.3,0.3-0.7,0.5-1.1,0.5
			c-0.3,0-0.6,0-1.1-0.1l0.2-1c0.2,0,0.4,0,0.5,0c0.3,0,0.5-0.1,0.6-0.2c0.1-0.2,0.2-0.7,0.4-1.5L71.8,205.4z"/>
		<path d="M82.8,211.9c-0.4,0.4-0.9,0.7-1.3,0.8s-0.8,0.3-1.3,0.3c-0.7,0-1.2-0.2-1.7-0.6s-0.6-0.9-0.6-1.5c0-0.4,0.1-0.8,0.3-1.1
			c0.2-0.3,0.4-0.6,0.8-0.8s0.7-0.3,1.1-0.4c0.3-0.1,0.8-0.1,1.6-0.1c0.8,0,1.4-0.1,1.7-0.3c0.1-0.3,0.1-0.6,0.1-0.9
			c0-0.3-0.1-0.5-0.3-0.7c-0.3-0.2-0.7-0.3-1.3-0.3c-0.5,0-1,0.1-1.3,0.4c-0.3,0.2-0.6,0.6-0.7,1l-1.3-0.1c0.3-0.7,0.7-1.3,1.2-1.7
			c0.6-0.4,1.3-0.6,2.1-0.6c0.9,0,1.6,0.2,2.2,0.7c0.4,0.3,0.6,0.8,0.6,1.3c0,0.4-0.1,0.9-0.2,1.4l-0.4,1.8
			c-0.1,0.6-0.2,1.1-0.2,1.4c0,0.2,0.1,0.6,0.2,1h-1.3C82.9,212.6,82.8,212.3,82.8,211.9z M83.3,209.1c-0.2,0.1-0.4,0.1-0.6,0.2
			c-0.2,0-0.5,0.1-1,0.1c-0.7,0.1-1.3,0.1-1.6,0.2c-0.3,0.1-0.5,0.3-0.7,0.5s-0.2,0.5-0.2,0.7c0,0.4,0.1,0.6,0.4,0.9
			c0.2,0.2,0.6,0.3,1,0.3c0.4,0,0.8-0.1,1.2-0.3c0.4-0.2,0.7-0.5,0.9-0.9C83,210.4,83.1,209.8,83.3,209.1z"/>
		<path d="M91.3,205.4h1.3l-1,4.7c-0.1,0.4-0.1,0.8-0.1,1c0,0.3,0.1,0.5,0.2,0.6c0.1,0.1,0.3,0.2,0.6,0.2c0.4,0,0.8-0.1,1.2-0.4
			c0.4-0.2,0.6-0.5,0.9-0.9c0.2-0.3,0.4-0.8,0.5-1.5l0.8-3.8h1.3l-1.1,4.8c-0.1,0.4-0.1,0.7-0.1,0.9c0,0.3,0.1,0.5,0.2,0.6
			c0.1,0.1,0.3,0.2,0.6,0.2c0.5,0,1.1-0.2,1.6-0.7c0.5-0.5,0.9-1.2,1.1-2.2c0,0,0-0.1,0-0.2l0.8-3.5h1.2l-1.6,7.4h-1.2l0.3-1.2
			c-0.7,0.9-1.5,1.4-2.4,1.4c-0.5,0-0.9-0.1-1.3-0.4s-0.5-0.6-0.5-1c-0.4,0.5-0.8,0.8-1.2,1.1c-0.4,0.2-0.9,0.4-1.3,0.4
			c-0.5,0-0.9-0.1-1.3-0.4c-0.3-0.3-0.5-0.7-0.5-1.1c0-0.3,0.1-0.9,0.2-1.6L91.3,205.4z"/>
		<path d="M107,210.3l1.2,0.1c-0.2,0.6-0.6,1.2-1.2,1.7s-1.4,0.8-2.3,0.8c-0.5,0-1.1-0.1-1.5-0.4c-0.5-0.3-0.8-0.6-1-1.1
			c-0.2-0.5-0.4-1-0.4-1.7c0-0.8,0.2-1.6,0.6-2.4s0.9-1.3,1.5-1.7c0.6-0.4,1.2-0.6,1.9-0.6c0.9,0,1.6,0.3,2.1,0.8s0.8,1.3,0.8,2.2
			c0,0.4,0,0.7-0.1,1.1h-5.5c0,0.1,0,0.3,0,0.4c0,0.7,0.2,1.2,0.5,1.6c0.3,0.4,0.7,0.5,1.2,0.5c0.4,0,0.9-0.1,1.3-0.4
			S106.8,210.8,107,210.3z M103.4,208.5h4.2c0-0.1,0-0.2,0-0.3c0-0.6-0.2-1.1-0.5-1.5s-0.7-0.5-1.2-0.5c-0.5,0-1,0.2-1.5,0.6
			S103.6,207.7,103.4,208.5z"/>
		<path d="M114.5,210.1l1.3,0.1c-0.3,0.9-0.8,1.6-1.4,2.1c-0.6,0.5-1.2,0.7-2,0.7c-0.8,0-1.5-0.3-2-0.8c-0.5-0.5-0.8-1.3-0.8-2.2
			c0-0.8,0.2-1.6,0.5-2.4c0.3-0.8,0.8-1.4,1.4-1.8c0.6-0.4,1.3-0.6,2.1-0.6c0.8,0,1.4,0.2,1.9,0.7s0.7,1,0.7,1.8l-1.2,0.1
			c0-0.5-0.1-0.8-0.4-1.1c-0.3-0.3-0.6-0.4-1.1-0.4c-0.5,0-0.9,0.2-1.3,0.5c-0.4,0.3-0.7,0.8-0.9,1.5c-0.2,0.7-0.3,1.3-0.3,1.9
			c0,0.6,0.1,1.1,0.4,1.4c0.3,0.3,0.6,0.5,1,0.5c0.4,0,0.8-0.2,1.2-0.5C114,211.2,114.3,210.8,114.5,210.1z"/>
		<path d="M116.5,212.8l1.6-7.4h1.3l-0.3,1.2c0.5-0.5,0.9-0.9,1.3-1.1c0.4-0.2,0.8-0.3,1.2-0.3c0.5,0,0.8,0.1,1.2,0.4
			c0.3,0.2,0.5,0.6,0.6,1c0.4-0.5,0.8-0.8,1.2-1c0.4-0.2,0.9-0.3,1.3-0.3c0.6,0,1.1,0.1,1.4,0.4c0.3,0.3,0.5,0.7,0.5,1.2
			c0,0.2-0.1,0.6-0.2,1.1l-1,4.8h-1.3l1-4.9c0.1-0.4,0.1-0.7,0.1-0.9c0-0.2-0.1-0.4-0.2-0.6c-0.2-0.1-0.4-0.2-0.6-0.2
			c-0.4,0-0.8,0.1-1.2,0.3c-0.4,0.2-0.7,0.5-0.9,0.9c-0.2,0.4-0.4,0.9-0.6,1.7l-0.8,3.6h-1.3l1-5c0.1-0.3,0.1-0.6,0.1-0.7
			c0-0.2-0.1-0.4-0.2-0.6c-0.2-0.1-0.3-0.2-0.6-0.2c-0.4,0-0.7,0.1-1.1,0.3c-0.4,0.2-0.7,0.5-1,1c-0.2,0.4-0.4,1-0.6,1.7l-0.7,3.5
			H116.5z"/>
		<path d="M128.5,210c0-1.4,0.4-2.6,1.3-3.6c0.7-0.8,1.6-1.2,2.8-1.2c0.9,0,1.6,0.3,2.2,0.8c0.5,0.6,0.8,1.3,0.8,2.3
			c0,0.9-0.2,1.6-0.5,2.4c-0.3,0.7-0.8,1.3-1.5,1.7s-1.3,0.6-2,0.6c-0.6,0-1.1-0.1-1.6-0.4c-0.5-0.2-0.8-0.6-1.1-1
			C128.7,211.1,128.5,210.6,128.5,210z M129.8,209.9c0,0.7,0.2,1.2,0.5,1.6c0.3,0.4,0.8,0.5,1.3,0.5c0.3,0,0.5-0.1,0.8-0.2
			s0.5-0.3,0.7-0.5c0.2-0.2,0.4-0.5,0.6-0.8s0.3-0.6,0.4-0.9c0.1-0.5,0.2-0.9,0.2-1.3c0-0.7-0.2-1.2-0.5-1.6
			c-0.3-0.4-0.8-0.6-1.3-0.6c-0.4,0-0.8,0.1-1.1,0.3c-0.3,0.2-0.6,0.5-0.9,0.8s-0.5,0.8-0.6,1.3
			C129.9,209.1,129.8,209.5,129.8,209.9z"/>
		<path d="M141.2,208.9c0.5,0.2,0.8,0.4,1.1,0.7c0.2,0.3,0.3,0.6,0.3,1c0,0.6-0.3,1.1-0.8,1.6c-0.5,0.5-1.2,0.7-2.2,0.7
			c-0.7,0-1.3-0.1-1.7-0.4c-0.4-0.2-0.8-0.6-1-1.1s-0.4-1-0.4-1.5c0-1.3,0.4-2.4,1.1-3.4c0.8-0.9,1.8-1.4,3.1-1.4
			c0.8,0,1.4,0.2,1.8,0.5s0.6,0.8,0.6,1.3c0,0.5-0.2,0.9-0.5,1.2S141.8,208.8,141.2,208.9z M137.8,209.4c0,0.2,0,0.4,0,0.6
			c0,0.6,0.2,1.1,0.5,1.4c0.3,0.4,0.8,0.6,1.4,0.6c0.5,0,0.9-0.1,1.2-0.4s0.4-0.6,0.4-0.9c0-0.5-0.2-0.9-0.6-1
			c-0.4-0.2-1.1-0.3-2.2-0.3C138.4,209.4,138.2,209.4,137.8,209.4z M138,208.4c0.3,0,0.6,0,0.9,0c1,0,1.7-0.1,2.2-0.3
			s0.7-0.5,0.7-0.9c0-0.3-0.1-0.5-0.3-0.7s-0.5-0.3-0.8-0.3c-0.6,0-1.1,0.2-1.6,0.6C138.6,207.2,138.2,207.7,138,208.4z"/>
		<path d="M143.7,210c0-1.4,0.4-2.6,1.3-3.6c0.7-0.8,1.6-1.2,2.8-1.2c0.9,0,1.6,0.3,2.2,0.8c0.5,0.6,0.8,1.3,0.8,2.3
			c0,0.9-0.2,1.6-0.5,2.4c-0.3,0.7-0.8,1.3-1.5,1.7s-1.3,0.6-2,0.6c-0.6,0-1.1-0.1-1.6-0.4c-0.5-0.2-0.8-0.6-1.1-1
			C143.8,211.1,143.7,210.6,143.7,210z M144.9,209.9c0,0.7,0.2,1.2,0.5,1.6c0.3,0.4,0.8,0.5,1.3,0.5c0.3,0,0.5-0.1,0.8-0.2
			s0.5-0.3,0.7-0.5c0.2-0.2,0.4-0.5,0.6-0.8c0.2-0.3,0.3-0.6,0.4-0.9c0.1-0.5,0.2-0.9,0.2-1.3c0-0.7-0.2-1.2-0.5-1.6
			c-0.3-0.4-0.8-0.6-1.3-0.6c-0.4,0-0.8,0.1-1.1,0.3c-0.3,0.2-0.6,0.5-0.9,0.8c-0.3,0.4-0.5,0.8-0.6,1.3
			C145,209.1,144.9,209.5,144.9,209.9z"/>
		<path d="M156.5,211.5c-0.9,1-1.8,1.5-2.7,1.5c-0.6,0-1-0.2-1.4-0.5c-0.4-0.3-0.5-0.7-0.5-1.2c0-0.3,0.1-0.8,0.2-1.6l0.9-4.3h1.3
			l-1,4.7c-0.1,0.4-0.1,0.7-0.1,0.9c0,0.3,0.1,0.5,0.3,0.7c0.2,0.2,0.4,0.2,0.8,0.2c0.4,0,0.7-0.1,1-0.3c0.3-0.2,0.6-0.4,0.9-0.7
			c0.2-0.3,0.4-0.6,0.6-1c0.1-0.3,0.2-0.7,0.4-1.3l0.7-3.2h1.3l-1.6,7.4h-1.2L156.5,211.5z M154.2,202.5h0.8
			c0.1,0.3,0.2,0.6,0.3,0.7c0.2,0.2,0.4,0.2,0.7,0.2c0.3,0,0.6-0.1,0.9-0.3c0.2-0.2,0.4-0.4,0.6-0.7h0.8c-0.2,0.6-0.4,1-0.9,1.3
			c-0.4,0.3-0.9,0.5-1.5,0.5c-0.5,0-1-0.2-1.3-0.5C154.4,203.5,154.2,203.1,154.2,202.5z"/>
		<path d="M168.3,211.9c-0.4,0.4-0.9,0.7-1.3,0.8s-0.8,0.3-1.3,0.3c-0.7,0-1.2-0.2-1.7-0.6c-0.4-0.4-0.6-0.9-0.6-1.5
			c0-0.4,0.1-0.8,0.3-1.1c0.2-0.3,0.4-0.6,0.8-0.8c0.3-0.2,0.7-0.3,1.1-0.4c0.3-0.1,0.8-0.1,1.6-0.1c0.8,0,1.4-0.1,1.7-0.3
			c0.1-0.3,0.1-0.6,0.1-0.9c0-0.3-0.1-0.5-0.3-0.7c-0.3-0.2-0.7-0.3-1.3-0.3c-0.5,0-1,0.1-1.3,0.4s-0.6,0.6-0.7,1l-1.3-0.1
			c0.3-0.7,0.7-1.3,1.2-1.7c0.6-0.4,1.3-0.6,2.1-0.6c0.9,0,1.6,0.2,2.2,0.7c0.4,0.3,0.6,0.8,0.6,1.3c0,0.4-0.1,0.9-0.2,1.4l-0.4,1.8
			c-0.1,0.6-0.2,1.1-0.2,1.4c0,0.2,0.1,0.6,0.2,1h-1.3C168.4,212.6,168.4,212.3,168.3,211.9z M168.8,209.1c-0.2,0.1-0.4,0.1-0.6,0.2
			c-0.2,0-0.5,0.1-1,0.1c-0.7,0.1-1.3,0.1-1.6,0.2s-0.5,0.3-0.7,0.5c-0.2,0.2-0.2,0.5-0.2,0.7c0,0.4,0.1,0.6,0.4,0.9
			c0.2,0.2,0.6,0.3,1,0.3c0.4,0,0.8-0.1,1.2-0.3c0.4-0.2,0.7-0.5,0.9-0.9C168.5,210.4,168.7,209.8,168.8,209.1z"/>
		<path d="M172.9,205.4h1.2l-0.7,3.2l0.2,0c0.3,0,0.6-0.1,0.9-0.3c0.2-0.2,0.5-0.6,0.9-1.3c0.4-0.7,0.8-1.1,1.1-1.3s0.7-0.3,1.2-0.3
			h0.6l-0.2,1h-0.3c-0.3,0-0.5,0-0.6,0.1c-0.1,0.1-0.3,0.3-0.5,0.7c-0.3,0.5-0.6,0.9-0.8,1.2c-0.2,0.2-0.5,0.4-0.9,0.6
			c0.3,0.1,0.6,0.3,0.8,0.5c0.2,0.2,0.4,0.6,0.5,1l0.9,2.3h-1.3L175,211c-0.3-0.7-0.5-1.1-0.7-1.3c-0.2-0.2-0.5-0.3-1-0.3l-0.8,3.5
			h-1.2L172.9,205.4z"/>
		<path d="M177.4,215.7l2.1-10.3h1.2l-0.2,1c0.4-0.5,0.8-0.8,1.2-0.9c0.3-0.2,0.7-0.3,1.1-0.3c0.7,0,1.3,0.3,1.8,0.8
			s0.7,1.3,0.7,2.2c0,0.8-0.1,1.5-0.4,2.1c-0.3,0.6-0.6,1.1-0.9,1.5c-0.4,0.4-0.8,0.7-1.1,0.9s-0.8,0.3-1.2,0.3
			c-0.9,0-1.6-0.5-2.1-1.4l-0.8,4H177.4z M179.9,209.8c0,0.6,0,0.9,0.1,1.2c0.1,0.3,0.3,0.5,0.6,0.7c0.3,0.2,0.6,0.3,0.9,0.3
			c0.7,0,1.3-0.4,1.8-1.2s0.7-1.7,0.7-2.5c0-0.6-0.2-1.1-0.5-1.5c-0.3-0.3-0.7-0.5-1.1-0.5c-0.3,0-0.6,0.1-0.9,0.3
			c-0.3,0.2-0.5,0.4-0.8,0.8c-0.2,0.3-0.4,0.8-0.6,1.2C180,209,179.9,209.4,179.9,209.8z"/>
		<path d="M186.2,210c0-1.4,0.4-2.6,1.3-3.6c0.7-0.8,1.6-1.2,2.8-1.2c0.9,0,1.6,0.3,2.2,0.8c0.5,0.6,0.8,1.3,0.8,2.3
			c0,0.9-0.2,1.6-0.5,2.4s-0.8,1.3-1.5,1.7s-1.3,0.6-2,0.6c-0.6,0-1.1-0.1-1.6-0.4s-0.8-0.6-1.1-1
			C186.3,211.1,186.2,210.6,186.2,210z M187.5,209.9c0,0.7,0.2,1.2,0.5,1.6c0.3,0.4,0.8,0.5,1.3,0.5c0.3,0,0.5-0.1,0.8-0.2
			s0.5-0.3,0.7-0.5c0.2-0.2,0.4-0.5,0.6-0.8c0.2-0.3,0.3-0.6,0.4-0.9c0.1-0.5,0.2-0.9,0.2-1.3c0-0.7-0.2-1.2-0.5-1.6
			s-0.8-0.6-1.3-0.6c-0.4,0-0.8,0.1-1.1,0.3s-0.6,0.5-0.9,0.8c-0.3,0.4-0.5,0.8-0.6,1.3C187.5,209.1,187.5,209.5,187.5,209.9z"/>
		<path d="M200.8,202.4h1.2c-0.1,0.7-0.4,1.1-0.8,1.3c-0.4,0.2-0.8,0.2-1.4,0.2l-1.3,0c-0.5,0-0.8,0.1-1.1,0.2
			c-0.2,0.1-0.5,0.3-0.6,0.6s-0.4,0.8-0.8,1.6c0.5-0.5,1-0.7,1.4-0.8c0.4-0.1,0.7-0.1,1-0.1c0.7,0,1.3,0.3,1.9,0.8
			c0.6,0.5,0.9,1.3,0.9,2.3c0,1.2-0.4,2.3-1.1,3.2c-0.7,0.9-1.7,1.4-2.9,1.4c-0.9,0-1.7-0.3-2.2-0.9s-0.8-1.3-0.8-2.2
			c0-1,0.3-2.3,0.8-3.7s1.1-2.4,1.7-2.8c0.6-0.4,1.4-0.6,2.3-0.6l1.1,0C200.5,202.7,200.7,202.6,200.8,202.4z M200,208.4
			c0-0.6-0.2-1.1-0.5-1.5c-0.3-0.4-0.7-0.6-1.3-0.6c-0.8,0-1.5,0.4-2,1.1s-0.8,1.6-0.8,2.5c0,0.5,0.2,1,0.5,1.4
			c0.3,0.4,0.7,0.6,1.3,0.6c0.8,0,1.5-0.4,2-1.2C199.8,210,200,209.2,200,208.4z"/>
		<path d="M207,211.9c-0.4,0.4-0.9,0.7-1.3,0.8s-0.8,0.3-1.3,0.3c-0.7,0-1.2-0.2-1.7-0.6c-0.4-0.4-0.6-0.9-0.6-1.5
			c0-0.4,0.1-0.8,0.3-1.1c0.2-0.3,0.4-0.6,0.8-0.8c0.3-0.2,0.7-0.3,1.1-0.4c0.3-0.1,0.8-0.1,1.6-0.1c0.8,0,1.4-0.1,1.7-0.3
			c0.1-0.3,0.1-0.6,0.1-0.9c0-0.3-0.1-0.5-0.3-0.7c-0.3-0.2-0.7-0.3-1.3-0.3c-0.5,0-1,0.1-1.3,0.4s-0.6,0.6-0.7,1l-1.3-0.1
			c0.3-0.7,0.7-1.3,1.2-1.7c0.6-0.4,1.3-0.6,2.1-0.6c0.9,0,1.6,0.2,2.2,0.7c0.4,0.3,0.6,0.8,0.6,1.3c0,0.4-0.1,0.9-0.2,1.4l-0.4,1.8
			c-0.1,0.6-0.2,1.1-0.2,1.4c0,0.2,0.1,0.6,0.2,1h-1.3C207.1,212.6,207,212.3,207,211.9z M207.5,209.1c-0.2,0.1-0.4,0.1-0.6,0.2
			c-0.2,0-0.5,0.1-1,0.1c-0.7,0.1-1.3,0.1-1.6,0.2s-0.5,0.3-0.7,0.5c-0.2,0.2-0.2,0.5-0.2,0.7c0,0.4,0.1,0.6,0.4,0.9
			c0.2,0.2,0.6,0.3,1,0.3c0.4,0,0.8-0.1,1.2-0.3c0.4-0.2,0.7-0.5,0.9-0.9C207.2,210.4,207.4,209.8,207.5,209.1z"/>
		<path d="M210,212.8l1.6-7.4h1.3l-0.3,1.2c0.5-0.5,0.9-0.9,1.3-1.1c0.4-0.2,0.8-0.3,1.2-0.3c0.5,0,0.8,0.1,1.2,0.4
			c0.3,0.2,0.5,0.6,0.6,1c0.4-0.5,0.8-0.8,1.2-1s0.9-0.3,1.3-0.3c0.6,0,1.1,0.1,1.4,0.4c0.3,0.3,0.5,0.7,0.5,1.2
			c0,0.2-0.1,0.6-0.2,1.1l-1,4.8h-1.3l1-4.9c0.1-0.4,0.1-0.7,0.1-0.9c0-0.2-0.1-0.4-0.2-0.6c-0.2-0.1-0.4-0.2-0.7-0.2
			c-0.4,0-0.8,0.1-1.2,0.3c-0.4,0.2-0.7,0.5-0.9,0.9s-0.4,0.9-0.6,1.7l-0.8,3.6h-1.3l1-5c0.1-0.3,0.1-0.6,0.1-0.7
			c0-0.2-0.1-0.4-0.2-0.6c-0.2-0.1-0.3-0.2-0.6-0.2c-0.4,0-0.7,0.1-1.1,0.3c-0.4,0.2-0.7,0.5-1,1c-0.2,0.4-0.4,1-0.6,1.7l-0.7,3.5
			H210z"/>
		<path d="M227,211.5c-0.9,1-1.8,1.5-2.7,1.5c-0.6,0-1-0.2-1.4-0.5c-0.4-0.3-0.5-0.7-0.5-1.2c0-0.3,0.1-0.8,0.2-1.6l0.9-4.3h1.3
			l-1,4.7c-0.1,0.4-0.1,0.7-0.1,0.9c0,0.3,0.1,0.5,0.3,0.7c0.2,0.2,0.4,0.2,0.8,0.2c0.4,0,0.7-0.1,1-0.3c0.3-0.2,0.6-0.4,0.9-0.7
			c0.2-0.3,0.4-0.6,0.6-1c0.1-0.3,0.2-0.7,0.4-1.3l0.7-3.2h1.3l-1.6,7.4h-1.2L227,211.5z"/>
		<path d="M231.4,205.4h1.2l-0.7,3.2l0.2,0c0.3,0,0.6-0.1,0.9-0.3c0.2-0.2,0.5-0.6,0.9-1.3c0.4-0.7,0.8-1.1,1.1-1.3s0.7-0.3,1.2-0.3
			h0.6l-0.2,1h-0.3c-0.3,0-0.5,0-0.6,0.1c-0.1,0.1-0.3,0.3-0.5,0.7c-0.3,0.5-0.6,0.9-0.8,1.2c-0.2,0.2-0.5,0.4-0.9,0.6
			c0.3,0.1,0.6,0.3,0.8,0.5c0.2,0.2,0.4,0.6,0.5,1l0.9,2.3h-1.3l-0.7-1.9c-0.3-0.7-0.5-1.1-0.7-1.3c-0.2-0.2-0.5-0.3-1-0.3l-0.8,3.5
			h-1.2L231.4,205.4z"/>
		<path d="M241.7,211.5c-0.9,1-1.8,1.5-2.7,1.5c-0.6,0-1-0.2-1.4-0.5c-0.4-0.3-0.5-0.7-0.5-1.2c0-0.3,0.1-0.8,0.2-1.6l0.9-4.3h1.3
			l-1,4.7c-0.1,0.4-0.1,0.7-0.1,0.9c0,0.3,0.1,0.5,0.3,0.7c0.2,0.2,0.4,0.2,0.8,0.2c0.4,0,0.7-0.1,1-0.3c0.3-0.2,0.6-0.4,0.9-0.7
			c0.2-0.3,0.4-0.6,0.6-1c0.1-0.3,0.2-0.7,0.4-1.3l0.7-3.2h1.3l-1.6,7.4h-1.2L241.7,211.5z"/>
	</g>
	<g id="XMLID_262_">
		<g id="XMLID_53_">
			<path id="XMLID_59_" class="st1" d="M155,99.4c0,0,2.4-14.1,0.1-20.1c-2.2-6,0.7-14.6,0.7-14.6s1.7,2.9,4.1,5s-12.6-17,13.9-54.1
				c0,0-3.2,21.6,0.1,26c0,0,3.9-29.3,19.4-35.7c0,0-10.1,24.8-7.6,40.1C188.2,61.3,188.8,97.8,155,99.4z"/>
			<path id="XMLID_58_" class="st1" d="M151.8,87.5c0,0-4.4-14.1,0.5-25.8c0.9-2.2,1.4-4.5,1.4-6.8c0-1.2,0-2.6,0.2-3.9
				c0.3-2.3-0.6-4.6-2.3-6.1C145.1,39,130.4,23.9,123.4,0c0,0-6.1,24,7.1,39.8c0,0-11-9.2-13.3-17c0,0-4.9,30.9,23.1,47.4l-4.6-0.4
				C135.8,69.8,135.7,78.5,151.8,87.5z"/>
			<path id="XMLID_57_" class="st1" d="M149.7,93.2c0,0-13.3-15.8-35.2-6.5S83.8,104,68.2,97.3c0,0,13.1,14.2,34.7,5.9
				S125.6,88.7,149.7,93.2z"/>
			<path id="XMLID_56_" class="st1" d="M150.4,100.1c0,0-18.2-8.4-32,4.3s-18.9,27-42,30.6c0,0,14.4,8,33.4-7.5
				S121.8,107.1,150.4,100.1z"/>
			<path id="XMLID_55_" class="st1" d="M119.1,133.4c0,0-0.6-18.7,24.1-25.9s30.4-3.8,42.9-21c0,0,1.2,16.3-17.3,24.9
				c-3.1,1.4-6.4,2.2-9.7,2.5C150.3,114.8,128.3,118.3,119.1,133.4z"/>
			<path id="XMLID_54_" class="st1" d="M188.1,81.8c0,0,2.4-12.5,2-16.8c0,0,10.4-7.3,12.6,1.4c0,0,6.4,0.1,4.7,4.7
				C207.4,71.1,202.6,68.1,188.1,81.8z"/>
		</g>
	</g>
	<line id="XMLID_261_" class="st0" x1="1.7" y1="195.9" x2="150.1" y2="195.9"/>
	<line id="XMLID_260_" class="st0" x1="133.5" y1="195.9" x2="285" y2="195.9"/>
</g>
</svg>
