<?xml version="1.0" encoding="utf-8"?>
<!-- Generator: Adobe Illustrator 17.0.0, SVG Export Plug-In . SVG Version: 6.00 Build 0)  -->
<!DOCTYPE svg PUBLIC "-//W3C//DTD SVG 1.1//EN" "http://www.w3.org/Graphics/SVG/1.1/DTD/svg11.dtd">
<svg version="1.1" id="Capa_1" xmlns="http://www.w3.org/2000/svg" xmlns:xlink="http://www.w3.org/1999/xlink" x="0px" y="0px"
	 width="512px" height="512px" viewBox="0 0 512 512" enable-background="new 0 0 512 512" xml:space="preserve">
<path fill="#f5d9ea" d="M254.435,3.129C113.915,3.129,0,117.044,0,257.565S113.915,512,254.435,512s254.435-113.915,254.435-254.435
	S394.956,3.129,254.435,3.129z M317.912,151.253c0,3.213-2.605,5.82-5.817,5.82l-24.934,0.009c-17.19,0-20.335,6.699-20.335,19.895
	v27.455h43.529c1.544,0,3.029,0.615,4.119,1.708c1.089,1.093,1.704,2.571,1.704,4.115l-0.018,46.926c0,3.216-2.604,5.82-5.82,5.82
	h-43.515v118.41c0,3.213-2.604,5.82-5.82,5.82h-48.557c-3.216,0-5.82-2.604-5.82-5.82v-118.41h-37.216
	c-3.213,0-5.82-2.604-5.82-5.82v-46.926c0-3.216,2.604-5.823,5.82-5.823h37.216v-32.388c0-42.674,26.873-70.246,68.458-70.246
	l37.014,0.06c3.21,0.006,5.811,2.61,5.812,5.821V151.253z"/>
</svg>
