<?xml version="1.0" encoding="utf-8"?>
<!-- Generator: Adobe Illustrator 22.0.0, SVG Export Plug-In . SVG Version: 6.00 Build 0)  -->
<svg version="1.1" id="Слой_1" xmlns="http://www.w3.org/2000/svg" xmlns:xlink="http://www.w3.org/1999/xlink" x="0px" y="0px"
	 viewBox="0 0 216.3 205.4" style="enable-background:new 0 0 216.3 205.4;" xml:space="preserve">
<style type="text/css">
	.st0{fill:none;stroke:#ffffff;stroke-width:2;stroke-miterlimit:10;}
	.st1{fill:#ffffff;}
</style>
<g>
	<circle id="XMLID_270_" class="st0" cx="119.3" cy="108.3" r="96"/>
	<g id="XMLID_262_">
		<g id="XMLID_53_">
			<path id="XMLID_59_" class="st1" d="M127.4,145.9c0,0,3.5-20.7,0.2-29.5c-3.3-8.8,1-21.5,1-21.5s2.6,4.2,6.1,7.3
				s-18.5-25,20.5-79.4c0,0-4.8,31.7,0.1,38.2c0,0,5.7-43,28.4-52.4c0,0-14.8,36.3-11.1,58.8S177.1,143.6,127.4,145.9z"/>
			<path id="XMLID_58_" class="st1" d="M122.8,128.5c0,0-6.4-20.7,0.8-37.9c1.3-3.2,2.1-6.6,2-10c0-1.8,0-3.8,0.3-5.7
				c0.4-3.4-0.8-6.8-3.4-9C112.9,57.3,91.4,35.2,81,0c0,0-9,35.2,10.5,58.4c0,0-16.1-13.6-19.5-25c0,0-7.3,45.3,34,69.6l-6.7-0.6
				C99.3,102.4,99.1,115.2,122.8,128.5z"/>
			<path id="XMLID_57_" class="st1" d="M119.7,136.8c0,0-19.5-23.2-51.7-9.6s-45.1,25.6-68,15.7c0,0,19.2,20.9,51,8.6
				S84.3,130.3,119.7,136.8z"/>
			<path id="XMLID_56_" class="st1" d="M120.7,147c0,0-26.7-12.4-47,6.3S45.9,192.9,12,198.2c0,0,21.1,11.8,49-11
				S78.7,157.3,120.7,147z"/>
			<path id="XMLID_55_" class="st1" d="M74.8,195.9c0,0-0.9-27.5,35.3-38s44.6-5.6,63-30.8c0,0,1.8,23.9-25.5,36.5
				c-4.5,2.1-9.3,3.3-14.3,3.7C120.5,168.5,88.2,173.7,74.8,195.9z"/>
			<path id="XMLID_54_" class="st1" d="M176,120.1c0,0,3.5-18.4,2.9-24.7c0,0,15.2-10.7,18.5,2.1c0,0,9.4,0.2,6.9,6.9
				C204.4,104.4,197.3,99.9,176,120.1z"/>
		</g>
	</g>
</g>
</svg>
